# xmcd
# 
# Track frame offsets:
#	150
#	22669
#	37690
#	59152
#	81948
#	99932
#	112788
#	128080
#	154219
#	185652
#
# Disc length: 2735 seconds
#
# Revision: 4
# Processed by: cddbd v1.5.1PL0 Copyright (c) Steve Scherf et al.
# Submitted via: Audio-CD-Archiv 3.00.486
#
DISCID=710aad0a
DTITLE=Septeto Caribe Son - Dulce Habanera
DYEAR=1900
DGENRE=blues
TTITLE0=Dulce Habanera
TTITLE1=Don Ramon
TTITLE2=Mira Que Eres Linda
TTITLE3=Son Para Ti
TTITLE4=Entregate A Mi
TTITLE5=La Mujer De Antonio
TTITLE6=Las Diferencias
TTITLE7=Yolanda
TTITLE8=Que Manera De Quererte
TTITLE9=La Sonadora
EXTD=
EXTT0=
EXTT1=
EXTT2=
EXTT3=
EXTT4=
EXTT5=
EXTT6=
EXTT7=
EXTT8=
EXTT9=
PLAYORDER=
